<?xml version="1.0" standalone="no"?>
<!DOCTYPE svg PUBLIC "-//W3C//DTD SVG 20010904//EN"
 "http://www.w3.org/TR/2001/REC-SVG-20010904/DTD/svg10.dtd">
<svg version="1.0" xmlns="http://www.w3.org/2000/svg"
 width="865.000000pt" height="865.000000pt" viewBox="0 0 865.000000 865.000000"
 preserveAspectRatio="xMidYMid meet">
<metadata>
Created by potrace 1.11, written by Peter Selinger 2001-2013
</metadata>
<g transform="translate(0.000000,865.000000) scale(0.100000,-0.100000)"
fill="#000000" stroke="none">
<path d="M4907 6206 c-65 -27 -79 -37 -123 -85 -60 -64 -79 -116 -79 -216 0
-78 4 -97 27 -140 127 -242 460 -242 586 0 44 85 40 207 -11 302 -70 132 -258
197 -400 139z"/>
<path d="M3532 6005 c-126 -39 -206 -147 -205 -279 0 -87 25 -149 83 -204 83
-81 185 -105 297 -71 203 63 265 327 113 479 -74 74 -192 104 -288 75z"/>
<path d="M4250 5826 c-197 -51 -262 -279 -121 -422 128 -130 359 -78 420 95
66 188 -107 376 -299 327z"/>
<path d="M2792 5704 c-97 -36 -159 -136 -149 -243 11 -126 117 -214 249 -206
71 4 117 26 161 74 104 115 71 292 -68 363 -52 27 -138 32 -193 12z"/>
<path d="M4952 5430 c-90 -19 -194 -80 -265 -155 -37 -39 -87 -111 -87 -124 0
-15 -1 -15 -66 24 -165 100 -332 78 -472 -62 -35 -35 -65 -63 -67 -63 -2 0
-14 19 -28 43 -101 171 -296 249 -479 191 -11 -3 -19 3 -23 18 -9 30 -43 66
-79 85 -35 18 -110 24 -146 11 -31 -10 -84 -56 -98 -83 -40 -79 -6 -187 72
-229 l34 -18 -26 -59 -26 -60 -28 50 c-51 88 -144 156 -231 167 -23 4 -44 7
-47 7 -3 1 -25 -2 -48 -6 -151 -26 -270 -176 -288 -363 l-6 -64 1512 0 1513 0
-6 93 c-3 51 -11 105 -16 120 -6 15 -9 27 -6 27 9 0 -38 118 -72 179 -69 124
-218 245 -328 266 -59 11 -151 14 -193 5z"/>
<path d="M4636 4503 l-106 -118 117 -3 118 -3 47 53 47 53 46 -52 47 -53 110
0 c68 0 108 4 106 10 -1 5 -45 59 -97 120 l-93 110 -118 0 -118 0 -106 -117z"/>
<path d="M577 4552 l-174 -2 -1 -660 0 -661 151 3 151 3 -1 414 c-1 227 0 411
2 409 2 -2 7 -20 9 -38 3 -19 8 -51 10 -70 3 -19 10 -69 16 -110 6 -41 13 -86
15 -100 2 -14 13 -90 25 -170 11 -80 23 -156 25 -170 2 -14 7 -45 10 -70 3
-25 8 -58 11 -73 l6 -28 105 3 c91 3 106 5 109 20 6 45 15 109 39 293 14 110
28 210 30 221 2 12 7 48 11 80 3 33 8 66 9 74 2 8 6 43 10 78 4 34 10 62 14
62 3 0 5 -187 5 -414 l-1 -415 144 -3 c80 -2 147 1 151 6 6 10 9 1270 3 1299
-3 16 -22 17 -227 17 l-224 0 -1 -27 c0 -16 -2 -37 -4 -48 -3 -21 -32 -243
-40 -310 -12 -105 -18 -150 -20 -164 -2 -9 -4 -25 -5 -36 -2 -20 -12 27 -24
115 -4 25 -9 61 -12 80 -3 19 -7 50 -9 68 -7 58 -18 130 -36 244 l-11 76 -49
4 c-26 1 -126 2 -222 0z"/>
<path d="M3157 4553 c-3 -5 -4 -46 -3 -93 l1 -85 173 -3 172 -2 0 95 0 95
-169 0 c-94 0 -172 -3 -174 -7z"/>
<path d="M6214 4547 c-3 -8 -4 -49 -2 -93 l3 -79 110 -3 c61 -2 137 0 171 3
l60 6 1 83 1 83 -52 7 c-28 3 -104 6 -169 6 -89 0 -119 -3 -123 -13z"/>
<path d="M1850 4329 c-119 -20 -225 -99 -255 -189 -10 -30 -17 -88 -18 -147
l-2 -98 158 -1 157 -2 0 97 c0 53 3 106 6 118 9 32 42 39 67 14 18 -17 21 -33
21 -105 1 -78 -1 -88 -24 -110 -14 -14 -65 -41 -115 -61 -196 -79 -237 -107
-256 -176 -13 -50 -16 -197 -5 -281 13 -101 76 -160 186 -174 92 -12 169 19
212 84 l18 27 0 -47 0 -48 161 0 160 0 -3 448 c-3 499 -2 489 -75 564 -76 78
-233 113 -393 87z m135 -895 c-6 -26 -28 -36 -60 -28 -32 8 -38 30 -37 135 1
99 12 130 64 172 l33 28 3 -143 c1 -79 0 -153 -3 -164z"/>
<path d="M3757 4326 c-62 -17 -112 -65 -134 -130 -15 -44 -18 -88 -18 -311 0
-311 6 -374 43 -434 62 -102 237 -130 347 -55 20 13 38 24 40 24 9 0 5 -129
-4 -153 -19 -48 -95 -37 -103 15 -3 23 -5 23 -160 24 l-158 0 0 -32 c0 -43 26
-113 53 -142 56 -60 170 -91 320 -87 193 5 314 65 363 180 15 36 18 98 21 568
l4 528 -158 -3 -157 -3 -11 -38 -11 -38 -23 25 c-56 59 -167 86 -254 62z m257
-202 c17 -16 19 -56 19 -388 0 -152 -1 -160 -22 -177 -26 -21 -62 -12 -68 17
-7 31 -4 486 2 516 6 25 27 47 47 48 4 0 14 -7 22 -16z"/>
<path d="M4758 4329 c-126 -18 -216 -86 -259 -195 -22 -56 -23 -70 -23 -319 0
-143 3 -287 7 -320 15 -128 88 -217 214 -260 57 -20 85 -23 178 -21 94 2 118
6 165 28 91 42 149 107 175 195 11 39 21 180 16 231 -1 9 -39 12 -156 12
l-155 0 -1 -97 c-1 -54 -2 -102 -4 -108 -1 -5 -3 -18 -3 -27 -5 -50 -76 -66
-93 -20 -13 31 -18 311 -7 319 5 2 100 4 213 3 189 0 205 1 205 17 0 10 2 50
5 88 5 100 -12 231 -39 291 -45 99 -143 165 -271 184 -79 11 -88 11 -167 -1z
m123 -205 c8 -9 15 -52 17 -105 l4 -89 -46 0 -46 0 0 89 c0 68 4 93 16 105 20
20 38 20 55 0z"/>
<path d="M5825 4331 c-44 -11 -76 -29 -112 -64 l-33 -31 0 42 0 42 -170 0
-170 0 0 -545 0 -545 164 0 163 0 6 433 c3 237 8 440 12 449 17 42 71 30 80
-18 3 -19 6 -222 6 -450 l-1 -414 167 2 166 3 0 455 c1 502 -1 515 -59 580
-48 53 -145 80 -219 61z"/>
<path d="M6972 4327 c-182 -23 -269 -106 -300 -287 -13 -75 -7 -538 8 -600 38
-163 142 -228 362 -228 181 0 297 66 350 197 22 54 23 68 23 366 l0 310 -26
55 c-14 30 -41 70 -60 89 -74 75 -222 116 -357 98z m108 -207 c7 -14 10 -132
8 -360 -3 -365 -3 -364 -53 -358 -36 5 -41 53 -40 386 0 342 2 352 51 352 13
0 28 -9 34 -20z"/>
<path d="M7837 4334 c-1 -1 -27 -4 -57 -7 -147 -15 -232 -74 -261 -181 -17
-62 -14 -196 5 -254 27 -80 74 -119 303 -251 40 -23 78 -52 84 -64 7 -12 12
-51 12 -86 0 -66 -6 -75 -51 -87 -41 -11 -56 16 -62 114 l-5 87 -146 3 -146 3
2 -79 c5 -182 57 -254 217 -303 84 -25 253 -20 329 9 111 44 156 116 166 265
11 185 -34 256 -227 356 -174 90 -202 121 -193 216 4 43 23 65 60 65 31 0 43
-28 43 -104 0 -56 3 -66 18 -67 101 -7 257 -2 267 8 17 16 8 159 -12 200 -37
79 -138 136 -266 151 -42 4 -78 7 -80 6z"/>
<path d="M2374 4303 c2 -10 26 -94 51 -188 26 -93 57 -204 70 -245 l23 -75
-50 -195 c-27 -107 -51 -203 -53 -212 -3 -10 -7 -26 -9 -37 -2 -10 -9 -36 -15
-57 -19 -67 -24 -64 123 -64 120 0 135 2 140 18 3 9 17 78 31 152 14 74 29
146 32 160 6 26 6 28 27 -82 2 -15 12 -65 22 -110 9 -46 18 -90 19 -98 2 -8 4
-21 4 -27 1 -10 41 -13 166 -13 l165 0 -10 23 c-5 12 -41 137 -81 277 -65 234
-70 259 -61 300 5 25 35 142 66 260 31 118 56 218 56 223 0 4 -67 7 -149 7
l-149 0 -15 -67 c-9 -38 -23 -114 -33 -170 -10 -57 -19 -101 -22 -99 -2 2 -18
78 -36 168 l-31 163 -143 3 c-134 2 -143 1 -138 -15z"/>
<path d="M3156 4308 c-3 -7 -3 -101 -2 -208 1 -107 3 -347 4 -532 l2 -338 170
0 170 0 0 545 0 545 -170 0 c-128 0 -172 -3 -174 -12z"/>
<path d="M6214 3781 c3 -298 7 -545 10 -549 2 -4 78 -6 168 -4 l164 3 0 539
c0 487 -1 539 -16 543 -9 2 -87 5 -173 6 l-157 2 4 -540z"/>
<path d="M88 2837 c-61 -31 -90 -85 -85 -157 9 -117 70 -173 182 -164 26 2 64
12 84 21 36 18 36 18 39 89 l3 71 -68 0 c-52 -1 -69 -5 -74 -16 -11 -27 2 -41
36 -41 19 0 35 -6 38 -14 19 -49 -101 -73 -145 -28 -19 19 -23 33 -23 87 0 75
19 102 77 112 30 4 41 1 63 -21 45 -45 103 -27 75 23 -28 53 -133 73 -202 38z"/>
<path d="M3648 2852 c-15 -2 -39 -17 -54 -35 -21 -25 -25 -38 -20 -66 7 -45
40 -72 107 -88 77 -19 97 -43 63 -77 -32 -33 -114 -9 -114 32 0 7 -15 12 -35
12 -40 0 -46 -19 -18 -60 26 -37 44 -48 90 -56 62 -9 122 13 147 55 39 67 -9
140 -102 155 -22 3 -50 14 -62 24 -21 17 -21 19 -5 35 28 29 105 16 105 -18 0
-15 57 -18 66 -4 9 16 -27 70 -54 81 -30 12 -73 16 -114 10z"/>
<path d="M7327 2824 c-16 -33 -16 -34 4 -34 16 0 79 52 79 65 0 2 -15 3 -34 3
-28 0 -36 -5 -49 -34z"/>
<path d="M919 2848 c-1 -2 -2 -15 -3 -30 -3 -26 0 -28 31 -28 30 0 33 3 33 30
0 27 -3 30 -30 30 -16 0 -30 -1 -31 -2z"/>
<path d="M1303 2685 l-1 -165 32 0 32 0 0 165 0 165 -31 0 -32 0 0 -165z"/>
<path d="M1430 2820 c0 -29 2 -31 33 -28 27 2 32 7 32 28 0 21 -5 26 -33 28
-30 3 -32 1 -32 -28z"/>
<path d="M1719 2838 c-1 -7 -1 -32 -1 -55 1 -41 -9 -55 -23 -33 -3 6 -26 10
-50 10 -69 0 -103 -52 -96 -145 5 -60 57 -109 106 -100 11 2 23 4 27 4 4 1 14
8 22 17 15 14 16 14 16 0 0 -11 9 -16 30 -16 l30 0 0 165 0 165 -30 0 c-17 0
-30 -6 -31 -12z m-8 -157 c7 -79 7 -81 -18 -101 -32 -25 -38 -25 -63 2 -34 37
-23 115 20 130 21 7 60 -12 61 -31z"/>
<path d="M2260 2795 c0 -54 -6 -65 -25 -46 -28 27 -96 12 -124 -27 -29 -41
-25 -141 8 -176 34 -36 74 -42 116 -18 26 16 33 17 28 6 -4 -12 1 -15 28 -12
l34 3 0 163 0 162 -32 0 -33 0 0 -55z m-4 -130 c8 -46 -2 -82 -26 -95 -42 -22
-73 7 -75 70 -1 35 13 60 38 69 32 12 55 -4 63 -44z"/>
<path d="M4170 2687 c0 -90 3 -166 6 -169 3 -3 17 -3 31 1 l26 7 1 162 1 162
-32 0 -33 0 0 -163z"/>
<path d="M4878 2824 c-14 -31 -4 -41 25 -25 17 9 30 9 51 1 36 -13 62 -5 70
22 7 30 1 34 -28 19 -13 -8 -29 -10 -35 -7 -6 4 -24 9 -41 11 -25 3 -33 -1
-42 -21z"/>
<path d="M5750 2822 c0 -28 2 -29 48 -28 l47 1 1 -133 c0 -141 6 -158 47 -143
19 7 20 17 21 135 1 140 4 146 62 139 32 -3 34 -2 34 27 l0 30 -130 0 -130 0
0 -28z"/>
<path d="M7109 2848 c-1 -2 -2 -76 -3 -165 l-1 -163 32 0 33 0 0 165 0 165
-30 0 c-16 0 -31 -1 -31 -2z"/>
<path d="M7800 2820 c0 -27 3 -30 33 -30 30 0 33 3 32 30 0 27 -3 30 -32 30
-30 0 -33 -3 -33 -30z"/>
<path d="M431 2756 c-45 -15 -71 -52 -75 -106 -6 -87 45 -141 126 -135 41 4
88 37 88 62 0 18 -54 17 -70 -2 -17 -20 -43 -19 -63 3 -32 35 -21 42 63 42 89
0 95 6 67 73 -25 58 -78 83 -136 63z m80 -74 c8 -21 5 -22 -41 -22 -54 0 -61
9 -30 40 24 24 59 15 71 -18z"/>
<path d="M725 2750 c-28 -14 -35 -15 -35 -4 0 9 -11 14 -30 14 l-30 0 0 -119
c0 -108 2 -119 19 -124 35 -9 45 8 46 80 1 83 9 109 36 116 40 11 56 -21 55
-111 l-1 -82 32 0 33 0 0 91 c0 75 -7 115 -25 137 -1 1 -16 7 -33 11 -24 7
-40 5 -67 -9z"/>
<path d="M1103 2759 c-41 -8 -63 -26 -63 -50 0 -23 44 -26 66 -5 7 8 22 13 31
11 10 -2 21 -4 24 -4 4 -1 9 -10 12 -20 4 -16 -2 -21 -34 -26 -21 -4 -40 -5
-41 -3 -2 1 -18 -7 -35 -20 -84 -60 8 -169 96 -115 15 10 26 11 30 5 6 -10 26
-16 46 -13 13 1 8 167 -7 203 -14 37 -61 51 -125 37z m72 -156 c-8 -32 -21
-43 -51 -43 -23 0 -39 24 -28 42 8 12 43 27 68 27 15 1 17 -4 11 -26z"/>
<path d="M1913 2762 c-32 -3 -87 -48 -77 -63 7 -12 64 -12 64 0 0 11 38 21 55
15 7 -3 16 -12 19 -20 6 -15 -22 -30 -67 -36 -13 -2 -36 -11 -50 -21 -34 -22
-37 -75 -7 -102 25 -23 78 -27 105 -8 25 17 35 17 35 0 0 -9 9 -12 28 -9 l29
4 -4 76 c-5 102 -11 140 -25 148 -18 11 -71 19 -105 16z m62 -159 c-8 -32 -21
-43 -51 -43 -23 0 -39 24 -28 42 8 12 43 27 68 27 15 1 17 -4 11 -26z"/>
<path d="M2458 2762 c-61 -8 -99 -83 -82 -165 14 -65 74 -95 155 -78 14 3 58
54 53 62 -9 15 -54 10 -71 -7 -22 -21 -55 -14 -70 16 l-12 25 79 3 80 3 0 30
c0 72 -58 121 -132 111z m50 -58 c39 -27 28 -44 -28 -44 -43 0 -49 2 -43 18 6
17 31 42 43 42 3 0 16 -7 28 -16z"/>
<path d="M2844 2760 c-17 -4 -36 -10 -43 -15 -19 -11 -48 -81 -45 -107 1 -13
3 -31 3 -40 1 -28 53 -77 87 -83 58 -9 123 23 124 63 0 17 -55 15 -70 -3 -18
-22 -46 -18 -64 7 -9 12 -16 26 -16 30 0 5 36 8 80 8 86 0 86 -1 74 59 -8 36
-45 77 -77 83 -12 2 -36 1 -53 -2z m52 -53 c7 -4 14 -16 17 -27 5 -18 0 -20
-44 -20 -53 0 -60 9 -30 39 19 19 36 22 57 8z"/>
<path d="M3264 2750 c-32 -17 -38 -17 -51 -5 -20 20 -82 19 -105 -2 -17 -15
-18 -15 -18 0 0 12 -9 17 -29 17 -29 0 -29 -1 -33 -62 -1 -35 -2 -89 0 -120 3
-57 4 -58 32 -58 l30 0 2 73 c0 39 1 79 2 87 1 18 44 40 62 33 15 -6 17 -20
16 -125 l-1 -68 33 0 33 0 1 81 c2 85 9 103 43 112 26 7 41 -30 39 -98 -3 -95
-3 -95 30 -95 17 0 30 5 31 13 4 63 -2 180 -10 195 -18 34 -64 43 -107 22z"/>
<path d="M3955 2756 c-103 -31 -117 -179 -20 -226 94 -45 193 20 181 120 -7
53 -30 85 -77 104 -22 9 -40 16 -42 15 -1 0 -20 -6 -42 -13z m79 -62 c19 -19
21 -84 4 -106 -30 -36 -79 -25 -96 23 -10 27 1 79 20 91 21 13 55 9 72 -8z"/>
<path d="M4663 2762 c-19 -2 -43 -15 -61 -33 -55 -56 -34 -188 33 -205 19 -5
23 -9 15 -19 -8 -9 -3 -14 21 -19 42 -8 32 -30 -15 -34 -43 -4 -45 -26 -2 -29
65 -5 110 38 77 74 -18 19 -18 20 11 32 32 14 68 70 46 72 -7 1 -23 3 -35 4
-14 1 -25 -4 -28 -15 -8 -26 -41 -31 -69 -9 -22 18 -25 35 -17 105 0 6 12 16
25 22 20 9 29 7 50 -9 27 -21 67 -23 73 -3 5 15 -43 61 -70 65 -12 2 -36 3
-54 1z"/>
<path d="M4913 2758 c-75 -20 -107 -112 -67 -190 17 -33 42 -48 92 -52 96 -10
157 76 124 174 -19 55 -85 85 -149 68z m76 -62 c18 -22 22 -79 6 -102 -33 -51
-105 -20 -105 46 0 54 68 93 99 56z"/>
<path d="M5195 2762 c-84 -14 -118 -154 -53 -218 47 -48 151 -35 176 21 11 24
10 25 -22 25 -18 0 -39 -7 -46 -15 -18 -22 -46 -18 -64 7 -9 12 -16 26 -16 30
0 5 36 8 80 8 79 0 80 0 80 26 0 34 -27 91 -48 99 -34 14 -68 21 -87 17z m63
-70 c21 -26 14 -32 -38 -32 -54 0 -61 9 -30 40 21 21 46 18 68 -8z"/>
<path d="M5440 2762 c-36 -5 -70 -41 -70 -72 0 -36 27 -58 90 -75 60 -16 65
-19 57 -40 -9 -21 -60 -19 -80 3 -23 25 -77 18 -70 -8 17 -64 167 -76 206 -17
15 24 13 62 -5 84 -6 7 -36 20 -67 29 -66 19 -82 31 -61 44 22 14 47 12 64 -6
11 -11 25 -14 46 -9 26 6 28 9 20 26 -18 32 -73 50 -130 41z"/>
<path d="M6072 2754 c-90 -37 -94 -193 -7 -230 49 -20 104 -11 133 22 12 14
20 30 17 35 -10 15 -62 10 -69 -6 -7 -18 -47 -20 -64 -3 -7 7 -12 20 -12 30 0
16 10 18 81 18 70 0 80 2 75 16 -3 9 -6 25 -6 37 0 60 -87 107 -148 81z m72
-53 c30 -25 19 -41 -29 -41 -48 0 -56 11 -29 41 17 19 35 19 58 0z"/>
<path d="M6347 2759 c-37 -10 -57 -27 -69 -59 -45 -114 38 -216 146 -180 29 9
75 65 63 76 -16 17 -52 11 -73 -11 -28 -30 -38 -31 -64 -5 -27 27 -27 93 -1
119 21 21 59 18 68 -5 6 -16 41 -18 61 -5 11 6 9 14 -10 35 -26 31 -80 46
-121 35z"/>
<path d="M6906 2759 c-44 -7 -95 -55 -97 -89 -3 -44 -2 -56 6 -83 16 -59 115
-92 177 -59 63 34 80 134 33 190 -31 37 -68 50 -119 41z m63 -63 c24 -28 24
-79 2 -108 -36 -46 -101 -12 -101 53 0 54 69 92 99 55z"/>
<path d="M7313 2760 c-40 -9 -60 -24 -79 -61 -30 -59 -9 -142 42 -170 38 -20
109 -17 141 7 40 30 60 96 43 143 -10 27 -43 71 -54 71 -1 0 -15 4 -31 8 -17
5 -45 5 -62 2z m69 -67 c26 -23 24 -86 -3 -112 -39 -36 -85 -11 -93 51 -8 63
52 101 96 61z"/>
<path d="M7575 2757 c-37 -12 -51 -31 -65 -79 -14 -50 2 -110 37 -137 30 -24
85 -27 103 -6 7 8 16 13 20 10 12 -7 1 -58 -13 -67 -20 -13 -57 -9 -73 7 -9 8
-29 15 -45 15 -35 0 -38 -21 -9 -50 25 -25 60 -34 117 -27 80 9 87 24 90 193
l3 145 -32 -3 c-22 -2 -32 -8 -30 -17 2 -11 0 -12 -10 -3 -27 22 -63 29 -93
19z m94 -80 c5 -12 7 -29 5 -37 -1 -8 -3 -20 -3 -27 -1 -18 -31 -43 -51 -43
-61 0 -70 123 -10 142 21 7 50 -10 59 -35z"/>
<path d="M7989 2755 c-84 -28 -97 -183 -20 -224 53 -29 118 -20 153 21 25 29
23 45 -6 52 -18 4 -31 0 -49 -18 -55 -55 -111 22 -74 102 12 26 64 31 73 7 7
-16 59 -21 68 -6 4 5 -5 23 -19 39 -29 34 -75 44 -126 27z"/>
<path d="M8243 2758 c-18 -5 -39 -18 -48 -30 -14 -22 -21 -48 -9 -35 3 3 17 2
30 -3 15 -6 24 -6 24 0 0 18 39 31 60 20 35 -19 22 -36 -36 -50 -31 -8 -65
-22 -75 -33 -20 -22 -18 -73 5 -95 19 -19 75 -22 109 -5 16 8 27 9 27 3 0 -5
16 -10 36 -10 25 0 33 4 28 12 -4 7 -9 46 -10 87 -1 42 -2 84 -3 93 -2 38 -76
62 -138 46z m77 -151 c0 -29 -18 -47 -47 -47 -27 0 -49 33 -30 48 12 10 39 18
65 21 6 0 12 -9 12 -22z"/>
<path d="M8507 2759 c-49 -8 -70 -29 -70 -70 0 -34 33 -68 66 -69 10 0 34 -7
54 -15 30 -13 33 -17 23 -30 -18 -21 -66 -19 -82 4 -10 14 -21 18 -41 14 -58
-11 -1 -72 74 -80 79 -8 140 54 109 112 -8 16 -32 28 -77 42 -66 20 -77 30
-49 47 11 8 25 6 51 -8 25 -14 41 -17 56 -10 l20 9 -20 27 c-23 29 -57 37
-114 27z"/>
<path d="M919 2758 c-1 -2 -2 -56 -3 -120 l-2 -118 33 0 33 0 0 120 0 120 -30
0 c-16 0 -31 -1 -31 -2z"/>
<path d="M1430 2641 c0 -107 2 -119 19 -124 41 -10 47 6 45 120 -1 59 -2 111
-3 116 0 4 -14 7 -31 7 l-30 0 0 -119z"/>
<path d="M4297 2753 c-2 -5 -2 -50 -2 -102 2 -90 4 -96 30 -118 28 -25 62 -26
103 -4 26 14 35 14 27 1 -4 -6 8 -10 28 -10 l33 0 -1 118 -1 117 -32 3 -32 3
0 -85 c0 -90 -11 -116 -50 -116 -30 0 -40 31 -40 119 l0 81 -29 0 c-17 0 -31
-3 -34 -7z"/>
<path d="M6539 2753 c-1 -5 -2 -59 -3 -120 l-1 -113 32 0 33 0 0 78 c0 78 9
105 40 114 8 3 23 1 33 -4 14 -7 17 -23 17 -98 l0 -90 33 0 34 0 -2 100 c-1
81 -4 103 -20 120 -23 25 -96 28 -116 4 -11 -14 -13 -14 -21 0 -9 16 -57 23
-59 9z"/>
<path d="M7801 2640 l-2 -120 34 0 33 0 -2 113 c-1 61 -2 115 -3 120 0 4 -14
7 -30 7 l-29 0 -1 -120z"/>
</g>
</svg>
